<?xml version="1.0" standalone="no"?><!DOCTYPE svg PUBLIC "-//W3C//DTD SVG 1.1//EN" "http://www.w3.org/Graphics/SVG/1.1/DTD/svg11.dtd"><svg width="100%" height="100%" viewBox="0 0 106 106" version="1.1" xmlns="http://www.w3.org/2000/svg" xmlns:xlink="http://www.w3.org/1999/xlink" xml:space="preserve" style="fill-rule:evenodd;clip-rule:evenodd;stroke-linejoin:round;stroke-miterlimit:1.41421;"><g><path d="M96.2,99.2l-87.1,0c-1.7,0 -3,-1.3 -3,-3l0,-87.1c0,-1.7 1.3,-3 3,-3l87.1,0c1.7,0 3,1.3 3,3l0,87.1c0,1.7 -1.3,3 -3,3Z" style="fill:#000;fill-rule:nonzero;"/><path d="M88.9,102.7l-72.4,0c-7.6,0 -13.8,-6.2 -13.8,-13.8l0,-72.4c0,-7.6 6.2,-13.8 13.8,-13.8l72.4,0c7.6,0 13.8,6.2 13.8,13.8l0,72.4c0,7.6 -6.2,13.8 -13.8,13.8ZM16.5,9.6c-3.8,0 -6.9,3.1 -6.9,6.9l0,72.4c0,3.8 3.1,6.9 6.9,6.9l72.4,0c3.8,0 6.9,-3.1 6.9,-6.9l0,-72.4c0,-3.8 -3.1,-6.9 -6.9,-6.9l-72.4,0Z" style="fill:#fff;fill-rule:nonzero;"/></g><path d="M88.9,6.1l-72.4,0c-5.7,0 -10.3,4.7 -10.3,10.3l0,17.7l93.1,0l0,-17.6c-0.1,-5.7 -4.7,-10.4 -10.4,-10.4Z" style="fill:#fff;fill-rule:nonzero;"/><path d="M49.9,44.3c5.5,0 11.2,0.8 16.3,5.7c3.7,3.5 6,8.4 6,14.8c0,6.5 -2.2,11.2 -5.6,14.7c-5.7,5.8 -12.9,6.2 -16.3,6.2l-13.5,0l0,-41.4l13.1,0ZM46.4,77.6l2.5,0c2,0 6.3,-0.2 9.4,-2.8c2.2,-1.9 4,-5.4 4,-10c0,-4.5 -1.8,-7.3 -3.4,-8.9c-3.1,-3.1 -7.1,-3.5 -10.1,-3.5l-2.5,0l0,25.2l0.1,0Z" style="fill:#fff;fill-rule:nonzero;"/></svg>