<?xml version="1.0" encoding="utf-8"?>
<!-- Generator: Adobe Illustrator 18.0.0, SVG Export Plug-In . SVG Version: 6.00 Build 0)  -->
<!DOCTYPE svg PUBLIC "-//W3C//DTD SVG 1.1//EN" "http://www.w3.org/Graphics/SVG/1.1/DTD/svg11.dtd">
<svg version="1.1" id="Layer_1" xmlns="http://www.w3.org/2000/svg" xmlns:xlink="http://www.w3.org/1999/xlink" x="0px" y="0px"
	 viewBox="0 0 105.3 105.3" enable-background="new 0 0 105.3 105.3" xml:space="preserve">
<g>
	<path fill="#F36F21" d="M96.2,99.2H9.1c-1.7,0-3-1.3-3-3V9.1c0-1.7,1.3-3,3-3h87.1c1.7,0,3,1.3,3,3v87.1
		C99.2,97.9,97.9,99.2,96.2,99.2z"/>
	<path fill="#FFFFFF" d="M88.9,102.7H16.5c-7.6,0-13.8-6.2-13.8-13.8V16.5c0-7.6,6.2-13.8,13.8-13.8h72.4c7.6,0,13.8,6.2,13.8,13.8
		v72.4C102.7,96.5,96.5,102.7,88.9,102.7z M16.5,9.6c-3.8,0-6.9,3.1-6.9,6.9v72.4c0,3.8,3.1,6.9,6.9,6.9h72.4c3.8,0,6.9-3.1,6.9-6.9
		V16.5c0-3.8-3.1-6.9-6.9-6.9H16.5z"/>
</g>
<path fill="#FFFFFF" d="M88.9,6.1H16.5c-5.7,0-10.3,4.7-10.3,10.3v17.7h93.1V16.5C99.2,10.8,94.6,6.1,88.9,6.1z"/>
<g>
	<path fill="#FFFFFF" d="M49.9,44.3c5.5,0,11.2,0.8,16.3,5.7c3.7,3.5,6,8.4,6,14.8c0,6.5-2.2,11.2-5.6,14.7
		c-5.7,5.8-12.9,6.2-16.3,6.2H36.8V44.3H49.9z M46.4,77.6h2.5c2,0,6.3-0.2,9.4-2.8c2.2-1.9,4-5.4,4-10c0-4.5-1.8-7.3-3.4-8.9
		c-3.1-3.1-7.1-3.5-10.1-3.5h-2.5V77.6z"/>
</g>
</svg>
