<?xml version="1.0" encoding="utf-8"?>
<!-- Generator: Adobe Illustrator 18.0.0, SVG Export Plug-In . SVG Version: 6.00 Build 0)  -->
<!DOCTYPE svg PUBLIC "-//W3C//DTD SVG 1.1//EN" "http://www.w3.org/Graphics/SVG/1.1/DTD/svg11.dtd">
<svg version="1.1" id="Layer_1" xmlns="http://www.w3.org/2000/svg" xmlns:xlink="http://www.w3.org/1999/xlink" x="0px" y="0px"
	 viewBox="0 0 105.3 105.3" enable-background="new 0 0 105.3 105.3" xml:space="preserve">
<g>
	<g>
		<g>
			<path fill="#F36F21" d="M87.9,100.9H15.5c-6.6,0-12-5.4-12-12V16.5c0-6.6,5.4-12,12-12h72.4c6.6,0,12,5.4,12,12v72.4
				C99.9,95.5,94.5,100.9,87.9,100.9z"/>
			<path fill="#FFFFFF" d="M89.2,102.7h-75c-6.9,0-12.5-5.6-12.5-12.5v-75c0-6.9,5.6-12.5,12.5-12.5h75c6.9,0,12.5,5.6,12.5,12.5v75
				C101.7,97.1,96.1,102.7,89.2,102.7z M14.2,6.2c-4.9,0-8.9,4-8.9,8.9v75c0,4.9,4,8.9,8.9,8.9h75c4.9,0,8.9-4,8.9-8.9v-75
				c0-4.9-4-8.9-8.9-8.9H14.2z"/>
		</g>
		<path fill="#FFFFFF" d="M89.2,4.5h-75C8.3,4.5,3.5,9.3,3.5,15.2v18.3h96.4V15.2C99.9,9.3,95.1,4.5,89.2,4.5z"/>
		<g>
			<path fill="#F36F21" d="M28.5,46c-2,0-3.6-1.6-3.6-3.6V24.5c0-2,1.6-3.6,3.6-3.6s3.6,1.6,3.6,3.6v17.9C32,44.4,30.4,46,28.5,46z"
				/>
			<path fill="#FFFFFF" d="M32,33.5v8.9c0,2-1.6,3.6-3.6,3.6s-3.6-1.6-3.6-3.6v-8.9"/>
		</g>
		<g>
			<path fill="#F36F21" d="M74.7,46c-2,0-3.6-1.6-3.6-3.6V24.5c0-2,1.6-3.6,3.6-3.6c2,0,3.6,1.6,3.6,3.6v17.9
				C78.3,44.4,76.7,46,74.7,46z"/>
			<path fill="#FFFFFF" d="M78.3,33.5v8.9c0,2-1.6,3.6-3.6,3.6c-2,0-3.6-1.6-3.6-3.6v-8.9"/>
		</g>
	</g>
	<text transform="matrix(1 0 0 1 15.1692 80.1667)" fill="#FFFFFF" font-family="'FuturaPT-Heavy'" font-size="28">DAYS</text>
</g>
</svg>
